0
SECTION
2
HEADER
9
$INSUNITS
70
4
9
$ACADVER
1
AC1014
9
$HANDSEED
5
FFFF
0
ENDSEC
0
SECTION
2
TABLES
0
TABLE
2
VPORT
5
8
100
AcDbSymbolTable
0
ENDTAB
0
TABLE
2
LTYPE
5
5
100
AcDbSymbolTable
0
LTYPE
5
14
100
AcDbSymbolTableRecord
100
AcDbLinetypeTableRecord
2
BYBLOCK
70
0
0
LTYPE
5
15
100
AcDbSymbolTableRecord
100
AcDbLinetypeTableRecord
2
BYLAYER
70
0
0
ENDTAB
0
TABLE
2
LAYER
5
2
100
AcDbSymbolTable
70
2
0
LAYER
5
50
100
AcDbSymbolTableRecord
100
AcDbLayerTableRecord
2
0
70
0
6
CONTINUOUS
0
ENDTAB
0
TABLE
2
STYLE
5
3
100
AcDbSymbolTable
70
1
0
STYLE
5
11
100
AcDbSymbolTableRecord
100
AcDbTextStyleTableRecord
2
STANDARD
70
0
0
ENDTAB
0
TABLE
2
VIEW
5
6
100
AcDbSymbolTable
70
0
0
ENDTAB
0
TABLE
2
UCS
5
7
100
AcDbSymbolTable
70
0
0
ENDTAB
0
TABLE
2
APPID
5
9
100
AcDbSymbolTable
70
2
0
APPID
5
12
100
AcDbSymbolTableRecord
100
AcDbRegAppTableRecord
2
ACAD
70
0
0
ENDTAB
0
TABLE
2
DIMSTYLE
5
A
100
AcDbSymbolTable
70
1
0
ENDTAB
0
TABLE
2
BLOCK_RECORD
5
1
100
AcDbSymbolTable
70
1
0
BLOCK_RECORD
5
1F
100
AcDbSymbolTableRecord
100
AcDbBlockTableRecord
2
*MODEL_SPACE
0
BLOCK_RECORD
5
1B
100
AcDbSymbolTableRecord
100
AcDbBlockTableRecord
2
*PAPER_SPACE
0
ENDTAB
0
ENDSEC
0
SECTION
2
BLOCKS
0
BLOCK
5
20
100
AcDbEntity
100
AcDbBlockBegin
2
*MODEL_SPACE
0
ENDBLK
5
21
100
AcDbEntity
100
AcDbBlockEnd
0
BLOCK
5
1C
100
AcDbEntity
100
AcDbBlockBegin
2
*PAPER_SPACE
0
ENDBLK
5
1D
100
AcDbEntity
100
AcDbBlockEnd
0
ENDSEC
0
SECTION
2
ENTITIES
0
LWPOLYLINE
5
100
100
AcDbEntity
8
0
100
AcDbPolyline
90
82
70
1
43
0.0
10
38.00808045867462
20
-14.219128317247947
10
25.658010632686043
20
-10.779154530100442
10
12.48103412193187
20
-7.1088551366940251
10
-1.2172768380393562
20
-3.2933438647385671
10
-14.589412117420579
20
0.1480054149078569
10
-28.777969803604719
20
3.6113621346703439
10
-43.798969497074722
20
7.0683357060170238
10
-58.379159302476182
20
10.233973325434818
10
-73.197064097694238
20
13.428189020905847
10
-89.217244734390988
20
16.412262447634021
10
-103.83668283120642
20
19.274499859611751
10
-134.70975865468972
20
25.141116700774546
10
-164.90770851456546
20
30.494541461093831
10
-195.13090368072881
20
35.395692147935733
10
-209.74246839963598
20
37.729396895597347
10
-223.76974522747332
20
39.915909332808042
10
-237.19446619475093
20
41.522870459471051
10
-250.5424847363156
20
43.280026052652829
10
-275.45803603768945
20
46.403990672406508
10
-297.53346013072587
20
49.08955815992158
10
-307.39910724090805
20
50.069024082322358
10
-316.47869429520142
20
50.880627134592942
10
-324.89869662649653
20
51.725658091431796
10
-332.5385298585843
20
52.422150306274489
10
-339.14408174881828
20
53.09993511491939
10
-344.94795010597045
20
53.501516617479865
10
-349.6797148933365
20
54.016320188256941
10
-353.64515062122337
20
54.257995570624189
10
-356.58148349339172
20
54.478984406200652
10
-357.74034742371066
20
54.566200672782728
10
-358.19999199360609
20
54.79999877512455
10
-358.09999199584126
20
55.199998766183853
10
-357.79999200254679
20
55.499998759478331
10
-356.21291304119268
20
55.910043074502305
10
-353.14497545777556
20
56.216914731944357
10
-348.9777734062526
20
56.734012796731875
10
-343.98929795771426
20
57.311945927964985
10
-338.08829651249198
20
57.981131658866474
10
-331.11580888510741
20
58.720005829664586
10
-323.32544321074818
20
59.405558009008203
10
-314.67680972940542
20
60.179074084579433
10
-305.09747635379284
20
61.007775195183086
10
-294.7460133057811
20
61.674669156926534
10
-283.68833505599588
20
62.42180957920931
10
-272.21590271575798
20
63.138547190556039
10
-246.70607724027261
20
64.501667635810975
10
-233.00996229033007
20
64.566578133204075
10
-219.17151168757303
20
64.681222625385871
10
-190.15597161417136
20
64.552264669504083
10
-159.20606220254291
20
63.778516934213378
10
-128.42144127000756
20
61.725095854771979
10
-96.906091352102493
20
58.962794268342051
10
-65.80494791682068
20
55.754011849008045
10
-35.314874806660576
20
50.570699420280825
10
-11.588009156184228
20
45.913223842736869
10
20.734328325131465
20
36.440681985796473
10
45.767237546746685
20
27.617369809436198
10
67.690950998257307
20
18.493049760252585
10
86.975421404541919
20
8.4160642754701538
10
95.488118531644346
20
3.5761945419171015
10
103.31248796688061
20
-1.2401707079412716
10
110.03342997666701
20
-5.9047050878676508
10
115.98423966766305
20
-10.40861885746202
10
121.27975903530216
20
-14.471484344406297
10
125.51533306428361
20
-18.477327350311224
10
128.84694876196841
20
-22.131357470352597
10
131.2113211925834
20
-25.570444642156236
10
132.67450768638295
20
-28.525302914876363
10
133.05120799686523
20
-31.72725555397566
10
131.60719014001651
20
-33.956065724329093
10
129.56673012490424
20
-35.086166655775898
10
126.39616917834513
20
-35.77678389166006
10
122.37314504688031
20
-35.872704115222419
10
117.50502525762474
20
-35.360270453195525
10
111.91095778049772
20
-34.506214349817348
10
105.2066173689791
20
-33.139724584412278
10
97.947140490264673
20
-31.431612377655938
10
89.758727558772165
20
-29.206200551214891
10
80.788449030796059
20
-26.739408199650008
10
71.116665874503013
20
-23.907394866433116
10
60.755842357073121
20
-20.879881500950358
10
49.693172001347541
20
-17.62839047094927
0
SPLINE
5
101
100
AcDbEntity
8
0
100
AcDbSpline
70
1064
71
3
72
55
73
51
74
0
42
0.000000001
43
0.0000000001
44
0.0000000001
40
0
40
0
40
0
40
0
40
0.020833333333333332
40
0.041666666666666664
40
0.0625
40
0.083333333333333329
40
0.10416666666666666
40
0.125
40
0.14583333333333331
40
0.16666666666666666
40
0.1875
40
0.20833333333333331
40
0.22916666666666666
40
0.25
40
0.27083333333333331
40
0.29166666666666663
40
0.3125
40
0.33333333333333331
40
0.35416666666666663
40
0.375
40
0.39583333333333331
40
0.41666666666666663
40
0.4375
40
0.45833333333333331
40
0.47916666666666663
40
0.5
40
0.52083333333333326
40
0.54166666666666663
40
0.5625
40
0.58333333333333326
40
0.60416666666666663
40
0.625
40
0.64583333333333326
40
0.66666666666666663
40
0.6875
40
0.70833333333333326
40
0.72916666666666663
40
0.75
40
0.77083333333333326
40
0.79166666666666663
40
0.8125
40
0.83333333333333326
40
0.85416666666666663
40
0.875
40
0.89583333333333326
40
0.91666666666666663
40
0.9375
40
0.95833333333333326
40
0.97916666666666663
40
1
40
1
40
1
40
1
10
25.658010632686043
20
-10.779154530100442
30
0
10
38.00808045867462
20
-14.219128317247947
30
0
10
49.693172001347541
20
-17.62839047094927
30
0
10
60.755842357073121
20
-20.879881500950358
30
0
10
71.116665874503013
20
-23.907394866433116
30
0
10
80.788449030796059
20
-26.739408199650008
30
0
10
89.758727558772165
20
-29.206200551214891
30
0
10
97.947140490264673
20
-31.431612377655938
30
0
10
105.2066173689791
20
-33.139724584412278
30
0
10
111.91095778049772
20
-34.506214349817348
30
0
10
117.50502525762474
20
-35.360270453195525
30
0
10
122.37314504688031
20
-35.872704115222419
30
0
10
126.39616917834513
20
-35.77678389166006
30
0
10
129.56673012490424
20
-35.086166655775898
30
0
10
131.60719014001651
20
-33.956065724329093
30
0
10
133.05120799686523
20
-31.72725555397566
30
0
10
132.67450768638295
20
-28.525302914876363
30
0
10
131.2113211925834
20
-25.570444642156236
30
0
10
128.84694876196841
20
-22.131357470352597
30
0
10
125.51533306428361
20
-18.477327350311224
30
0
10
121.27975903530216
20
-14.471484344406297
30
0
10
115.98423966766305
20
-10.40861885746202
30
0
10
110.03342997666701
20
-5.9047050878676508
30
0
10
103.31248796688061
20
-1.2401707079412716
30
0
10
95.488118531644346
20
3.5761945419171015
30
0
10
86.975421404541919
20
8.4160642754701538
30
0
10
67.690950998257307
20
18.493049760252585
30
0
10
45.767237546746685
20
27.617369809436198
30
0
10
20.734328325131465
20
36.440681985796473
30
0
10
-11.588009156184228
20
45.913223842736869
30
0
10
-35.314874806660576
20
50.570699420280825
30
0
10
-65.80494791682068
20
55.754011849008045
30
0
10
-96.906091352102493
20
58.962794268342051
30
0
10
-128.42144127000756
20
61.725095854771979
30
0
10
-159.20606220254291
20
63.778516934213378
30
0
10
-190.15597161417136
20
64.552264669504083
30
0
10
-219.17151168757303
20
64.681222625385871
30
0
10
-233.00996229033007
20
64.566578133204075
30
0
10
-246.70607724027261
20
64.501667635810975
30
0
10
-272.21590271575798
20
63.138547190556039
30
0
10
-283.68833505599588
20
62.42180957920931
30
0
10
-294.7460133057811
20
61.674669156926534
30
0
10
-305.09747635379284
20
61.007775195183086
30
0
10
-314.67680972940542
20
60.179074084579433
30
0
10
-323.32544321074818
20
59.405558009008203
30
0
10
-331.11580888510741
20
58.720005829664586
30
0
10
-338.08829651249198
20
57.981131658866474
30
0
10
-343.98929795771426
20
57.311945927964985
30
0
10
-348.9777734062526
20
56.734012796731875
30
0
10
-353.14497545777556
20
56.216914731944357
30
0
10
-356.21291304119268
20
55.910043074502305
30
0
0
SPLINE
5
102
100
AcDbEntity
8
0
100
AcDbSpline
70
1064
71
3
72
32
73
28
74
0
42
0.000000001
43
0.0000000001
44
0.0000000001
40
0
40
0
40
0
40
0
40
0.040000000000000001
40
0.080000000000000002
40
0.12
40
0.16
40
0.20000000000000001
40
0.23999999999999999
40
0.28000000000000003
40
0.32000000000000001
40
0.35999999999999999
40
0.40000000000000002
40
0.44
40
0.47999999999999998
40
0.52000000000000002
40
0.56000000000000005
40
0.59999999999999998
40
0.64000000000000001
40
0.68000000000000005
40
0.71999999999999997
40
0.76000000000000001
40
0.80000000000000004
40
0.83999999999999997
40
0.88
40
0.92000000000000004
40
0.95999999999999996
40
1
40
1
40
1
40
1
10
25.658010632686043
20
-10.779154530100442
30
0
10
12.48103412193187
20
-7.1088551366940251
30
0
10
-1.2172768380393562
20
-3.2933438647385671
30
0
10
-14.589412117420579
20
0.1480054149078569
30
0
10
-28.777969803604719
20
3.6113621346703439
30
0
10
-43.798969497074722
20
7.0683357060170238
30
0
10
-58.379159302476182
20
10.233973325434818
30
0
10
-73.197064097694238
20
13.428189020905847
30
0
10
-89.217244734390988
20
16.412262447634021
30
0
10
-103.83668283120642
20
19.274499859611751
30
0
10
-134.70975865468972
20
25.141116700774546
30
0
10
-164.90770851456546
20
30.494541461093831
30
0
10
-195.13090368072881
20
35.395692147935733
30
0
10
-209.74246839963598
20
37.729396895597347
30
0
10
-223.76974522747332
20
39.915909332808042
30
0
10
-237.19446619475093
20
41.522870459471051
30
0
10
-250.5424847363156
20
43.280026052652829
30
0
10
-275.45803603768945
20
46.403990672406508
30
0
10
-297.53346013072587
20
49.08955815992158
30
0
10
-307.39910724090805
20
50.069024082322358
30
0
10
-316.47869429520142
20
50.880627134592942
30
0
10
-324.89869662649653
20
51.725658091431796
30
0
10
-332.5385298585843
20
52.422150306274489
30
0
10
-339.14408174881828
20
53.09993511491939
30
0
10
-344.94795010597045
20
53.501516617479865
30
0
10
-349.6797148933365
20
54.016320188256941
30
0
10
-353.64515062122337
20
54.257995570624189
30
0
10
-356.58148349339172
20
54.478984406200652
30
0
0
SPLINE
5
103
100
AcDbEntity
8
0
100
AcDbSpline
70
1064
71
3
72
10
73
6
74
0
42
0.000000001
43
0.0000000001
44
0.0000000001
40
0
40
0
40
0
40
0
40
0.33333333333333331
40
0.66666666666666663
40
1
40
1
40
1
40
1
10
-356.58148349339172
20
54.478984406200652
30
0
10
-357.74034742371066
20
54.566200672782728
30
0
10
-358.19999199360609
20
54.79999877512455
30
0
10
-358.09999199584126
20
55.199998766183853
30
0
10
-357.79999200254679
20
55.499998759478331
30
0
10
-356.21291304119268
20
55.910043074502305
30
0
0
ENDSEC
0
SECTION
2
OBJECTS
0
DICTIONARY
5
C
100
AcDbDictionary
3
ACAD_GROUP
350
D
3
ACAD_MLINESTYLE
350
17
0
DICTIONARY
5
D
100
AcDbDictionary
0
DICTIONARY
5
1A
330
C
100
AcDbDictionary
0
DICTIONARY
5
17
100
AcDbDictionary
0
ENDSEC
0
EOF
