0
SECTION
2
HEADER
9
$INSUNITS
70
4
9
$ACADVER
1
AC1014
9
$HANDSEED
5
FFFF
0
ENDSEC
0
SECTION
2
TABLES
0
TABLE
2
VPORT
5
8
100
AcDbSymbolTable
0
ENDTAB
0
TABLE
2
LTYPE
5
5
100
AcDbSymbolTable
0
LTYPE
5
14
100
AcDbSymbolTableRecord
100
AcDbLinetypeTableRecord
2
BYBLOCK
70
0
0
LTYPE
5
15
100
AcDbSymbolTableRecord
100
AcDbLinetypeTableRecord
2
BYLAYER
70
0
0
ENDTAB
0
TABLE
2
LAYER
5
2
100
AcDbSymbolTable
70
2
0
LAYER
5
50
100
AcDbSymbolTableRecord
100
AcDbLayerTableRecord
2
0
70
0
6
CONTINUOUS
0
ENDTAB
0
TABLE
2
STYLE
5
3
100
AcDbSymbolTable
70
1
0
STYLE
5
11
100
AcDbSymbolTableRecord
100
AcDbTextStyleTableRecord
2
STANDARD
70
0
0
ENDTAB
0
TABLE
2
VIEW
5
6
100
AcDbSymbolTable
70
0
0
ENDTAB
0
TABLE
2
UCS
5
7
100
AcDbSymbolTable
70
0
0
ENDTAB
0
TABLE
2
APPID
5
9
100
AcDbSymbolTable
70
2
0
APPID
5
12
100
AcDbSymbolTableRecord
100
AcDbRegAppTableRecord
2
ACAD
70
0
0
ENDTAB
0
TABLE
2
DIMSTYLE
5
A
100
AcDbSymbolTable
70
1
0
ENDTAB
0
TABLE
2
BLOCK_RECORD
5
1
100
AcDbSymbolTable
70
1
0
BLOCK_RECORD
5
1F
100
AcDbSymbolTableRecord
100
AcDbBlockTableRecord
2
*MODEL_SPACE
0
BLOCK_RECORD
5
1B
100
AcDbSymbolTableRecord
100
AcDbBlockTableRecord
2
*PAPER_SPACE
0
ENDTAB
0
ENDSEC
0
SECTION
2
BLOCKS
0
BLOCK
5
20
100
AcDbEntity
100
AcDbBlockBegin
2
*MODEL_SPACE
0
ENDBLK
5
21
100
AcDbEntity
100
AcDbBlockEnd
0
BLOCK
5
1C
100
AcDbEntity
100
AcDbBlockBegin
2
*PAPER_SPACE
0
ENDBLK
5
1D
100
AcDbEntity
100
AcDbBlockEnd
0
ENDSEC
0
SECTION
2
ENTITIES
0
SPLINE
5
100
100
AcDbEntity
8
0
100
AcDbSpline
70
1064
71
5
72
336
73
330
74
0
42
0.000000001
43
0.0000000001
44
0.0000000001
40
0
40
0
40
0
40
0
40
0
40
0
40
0.0030769230769230769
40
0.0061538461538461538
40
0.0092307692307692299
40
0.012307692307692308
40
0.015384615384615385
40
0.018461538461538463
40
0.021538461538461541
40
0.024615384615384619
40
0.027692307692307697
40
0.030769230769230774
40
0.033846153846153852
40
0.036923076923076927
40
0.040000000000000001
40
0.043076923076923075
40
0.046153846153846149
40
0.049230769230769224
40
0.052307692307692298
40
0.055384615384615372
40
0.058461538461538447
40
0.061538461538461521
40
0.064615384615384602
40
0.067692307692307677
40
0.070769230769230751
40
0.073846153846153825
40
0.0769230769230769
40
0.079999999999999974
40
0.083076923076923048
40
0.086153846153846123
40
0.089230769230769197
40
0.092307692307692271
40
0.095384615384615346
40
0.09846153846153842
40
0.10153846153846149
40
0.10461538461538457
40
0.10769230769230764
40
0.11076923076923072
40
0.11384615384615379
40
0.11692307692307687
40
0.11999999999999994
40
0.12307692307692301
40
0.12615384615384609
40
0.12923076923076918
40
0.13230769230769227
40
0.13538461538461535
40
0.13846153846153844
40
0.14153846153846153
40
0.14461538461538462
40
0.14769230769230771
40
0.15076923076923079
40
0.15384615384615388
40
0.15692307692307697
40
0.16000000000000006
40
0.16307692307692315
40
0.16615384615384624
40
0.16923076923076932
40
0.17230769230769241
40
0.1753846153846155
40
0.17846153846153859
40
0.18153846153846168
40
0.18461538461538476
40
0.18769230769230785
40
0.19076923076923094
40
0.19384615384615403
40
0.19692307692307712
40
0.20000000000000021
40
0.20307692307692329
40
0.20615384615384638
40
0.20923076923076947
40
0.21230769230769256
40
0.21538461538461565
40
0.21846153846153873
40
0.22153846153846182
40
0.22461538461538491
40
0.227692307692308
40
0.23076923076923109
40
0.23384615384615418
40
0.23692307692307726
40
0.24000000000000035
40
0.24307692307692344
40
0.24615384615384653
40
0.24923076923076962
40
0.25230769230769268
40
0.25538461538461577
40
0.25846153846153885
40
0.26153846153846194
40
0.26461538461538503
40
0.26769230769230812
40
0.27076923076923121
40
0.27384615384615429
40
0.27692307692307738
40
0.28000000000000047
40
0.28307692307692356
40
0.28615384615384665
40
0.28923076923076974
40
0.29230769230769282
40
0.29538461538461591
40
0.298461538461539
40
0.30153846153846209
40
0.30461538461538518
40
0.30769230769230826
40
0.31076923076923135
40
0.31384615384615444
40
0.31692307692307753
40
0.32000000000000062
40
0.32307692307692371
40
0.32615384615384679
40
0.32923076923076988
40
0.33230769230769297
40
0.33538461538461606
40
0.33846153846153915
40
0.34153846153846223
40
0.34461538461538532
40
0.34769230769230841
40
0.3507692307692315
40
0.35384615384615459
40
0.35692307692307768
40
0.36000000000000076
40
0.36307692307692385
40
0.36615384615384694
40
0.36923076923077003
40
0.37230769230769312
40
0.3753846153846162
40
0.37846153846153929
40
0.38153846153846238
40
0.38461538461538547
40
0.38769230769230856
40
0.39076923076923165
40
0.39384615384615473
40
0.39692307692307782
40
0.40000000000000091
40
0.403076923076924
40
0.40615384615384709
40
0.40923076923077017
40
0.41230769230769326
40
0.41538461538461635
40
0.41846153846153944
40
0.42153846153846253
40
0.42461538461538562
40
0.4276923076923087
40
0.43076923076923179
40
0.43384615384615488
40
0.43692307692307797
40
0.44000000000000106
40
0.44307692307692415
40
0.44615384615384723
40
0.44923076923077032
40
0.45230769230769341
40
0.4553846153846165
40
0.45846153846153959
40
0.46153846153846267
40
0.46461538461538576
40
0.46769230769230885
40
0.47076923076923194
40
0.47384615384615503
40
0.47692307692307812
40
0.4800000000000012
40
0.48307692307692429
40
0.48615384615384738
40
0.48923076923077047
40
0.49230769230769356
40
0.49538461538461664
40
0.49846153846153973
40
0.50153846153846282
40
0.50461538461538591
40
0.507692307692309
40
0.51076923076923209
40
0.51384615384615517
40
0.51692307692307826
40
0.52000000000000135
40
0.52307692307692444
40
0.52615384615384753
40
0.52923076923077061
40
0.5323076923076937
40
0.53538461538461679
40
0.53846153846153988
40
0.54153846153846297
40
0.54461538461538606
40
0.54769230769230914
40
0.55076923076923223
40
0.55384615384615532
40
0.55692307692307841
40
0.5600000000000015
40
0.56307692307692458
40
0.56615384615384767
40
0.56923076923077076
40
0.57230769230769385
40
0.57538461538461694
40
0.57846153846154003
40
0.58153846153846311
40
0.5846153846153862
40
0.58769230769230929
40
0.59076923076923238
40
0.59384615384615547
40
0.59692307692307855
40
0.60000000000000164
40
0.60307692307692473
40
0.60615384615384782
40
0.60923076923077091
40
0.612307692307694
40
0.61538461538461708
40
0.61846153846154017
40
0.62153846153846326
40
0.62461538461538635
40
0.62769230769230944
40
0.63076923076923253
40
0.63384615384615561
40
0.6369230769230787
40
0.64000000000000179
40
0.64307692307692488
40
0.64615384615384797
40
0.64923076923077105
40
0.65230769230769414
40
0.65538461538461723
40
0.65846153846154032
40
0.66153846153846341
40
0.6646153846153865
40
0.66769230769230958
40
0.67076923076923267
40
0.67384615384615576
40
0.67692307692307885
40
0.68000000000000194
40
0.68307692307692502
40
0.68615384615384811
40
0.6892307692307712
40
0.69230769230769429
40
0.69538461538461738
40
0.69846153846154047
40
0.70153846153846355
40
0.70461538461538664
40
0.70769230769230973
40
0.71076923076923282
40
0.71384615384615591
40
0.71692307692307899
40
0.72000000000000208
40
0.72307692307692517
40
0.72615384615384826
40
0.72923076923077135
40
0.73230769230769444
40
0.73538461538461752
40
0.73846153846154061
40
0.7415384615384637
40
0.74461538461538679
40
0.74769230769230988
40
0.75076923076923296
40
0.75384615384615605
40
0.75692307692307914
40
0.76000000000000223
40
0.76307692307692532
40
0.76615384615384841
40
0.76923076923077149
40
0.77230769230769458
40
0.77538461538461767
40
0.77846153846154076
40
0.78153846153846385
40
0.78461538461538693
40
0.78769230769231002
40
0.79076923076923311
40
0.7938461538461562
40
0.79692307692307929
40
0.80000000000000238
40
0.80307692307692546
40
0.80615384615384855
40
0.80923076923077164
40
0.81230769230769473
40
0.81538461538461782
40
0.81846153846154091
40
0.82153846153846399
40
0.82461538461538708
40
0.82769230769231017
40
0.83076923076923326
40
0.83384615384615635
40
0.83692307692307943
40
0.84000000000000252
40
0.84307692307692561
40
0.8461538461538487
40
0.84923076923077179
40
0.85230769230769488
40
0.85538461538461796
40
0.85846153846154105
40
0.86153846153846414
40
0.86461538461538723
40
0.86769230769231032
40
0.8707692307692334
40
0.87384615384615649
40
0.87692307692307958
40
0.88000000000000267
40
0.88307692307692576
40
0.88615384615384885
40
0.88923076923077193
40
0.89230769230769502
40
0.89538461538461811
40
0.8984615384615412
40
0.90153846153846429
40
0.90461538461538737
40
0.90769230769231046
40
0.91076923076923355
40
0.91384615384615664
40
0.91692307692307973
40
0.92000000000000282
40
0.9230769230769259
40
0.92615384615384899
40
0.92923076923077208
40
0.93230769230769517
40
0.93538461538461826
40
0.93846153846154134
40
0.94153846153846443
40
0.94461538461538752
40
0.94769230769231061
40
0.9507692307692337
40
0.95384615384615679
40
0.95692307692307987
40
0.96000000000000296
40
0.96307692307692605
40
0.96615384615384914
40
0.96923076923077223
40
0.97230769230769531
40
0.9753846153846184
40
0.97846153846154149
40
0.98153846153846458
40
0.98461538461538767
40
0.98769230769231076
40
0.99076923076923384
40
0.99384615384615693
40
0.99692307692308002
40
1
40
1
40
1
40
1
40
1
40
1
10
-214.40384904985294
20
-9.535996730080285
30
0
10
-213.77846887425702
20
-9.3569796477502489
30
0
10
-212.54423230292144
20
-9.0034940308593434
30
0
10
-210.74244879622537
20
-8.4869112512083671
30
0
10
-208.43921492273054
20
-7.8254259030125786
30
0
10
-205.72414493466596
20
-7.0437803415399447
30
0
10
-203.1692266130338
20
-6.3065162157402241
30
0
10
-200.7668099858908
20
-5.6119716295011948
30
0
10
-198.5041280739533
20
-4.9573724384196192
30
0
10
-196.36203442246907
20
-4.3385578039852462
30
0
10
-194.31368115037617
20
-3.7496925742029292
30
0
10
-192.32333589398351
20
-3.1830104289055732
30
0
10
-190.34483233947739
20
-2.6284758726902564
30
0
10
-188.32511887157989
20
-2.0745752570645131
30
0
10
-186.20824178735148
20
-1.5092039853529249
30
0
10
-183.93920200824201
20
-0.92052583529961352
30
0
10
-181.46779784354743
20
-0.29782889358804526
30
0
10
-178.75262985831685
20
0.36758190705997928
30
0
10
-175.76467154858909
20
1.0815900414091346
30
0
10
-172.49194630907004
20
1.8462235747322133
30
0
10
-168.93937853620787
20
2.6596977565429918
30
0
10
-165.12572015277698
20
3.5171159941741132
30
0
10
-161.08136584029435
20
4.410970761206924
30
0
10
-156.84580178288201
20
5.3317270106898835
30
0
10
-152.46521150411152
20
6.2683702233624086
30
0
10
-147.99001624745347
20
7.208969196186306
30
0
10
-143.47244001053346
20
8.1412332749812482
30
0
10
-138.96407309986122
20
9.0530699405092037
30
0
10
-134.51341550592849
20
9.9331468982430078
30
0
10
-130.16347717993855
20
10.771441459003629
30
0
10
-125.9492410553047
20
11.559820595778847
30
0
10
-121.89544826272957
20
12.292549002088549
30
0
10
-118.01357519829487
20
12.966977759925415
30
0
10
-114.3026202720673
20
13.583381627259834
30
0
10
-110.75177657504101
20
14.144374869284791
30
0
10
-107.34251137780794
20
14.654459654156176
30
0
10
-104.05089159572212
20
15.11951949625885
30
0
10
-100.84980287464434
20
15.54633646200598
30
0
10
-97.711215270707825
20
15.942098016714292
30
0
10
-94.608426292442559
20
16.313908835484547
30
0
10
-91.518319467213715
20
16.668299397600858
30
0
10
-88.423603066885832
20
17.010738460703667
30
0
10
-85.315089371422502
20
17.345137822027464
30
0
10
-82.193868261458363
20
17.673377067343512
30
0
10
-79.069056008710476
20
17.99566313608053
30
0
10
-75.955645768401098
20
18.31087083921404
30
0
10
-72.872316363594678
20
18.616890897333057
30
0
10
-69.839268388165138
20
18.910973595195475
30
0
10
-66.876027062352691
20
19.190076873063187
30
0
10
-63.999309661119355
20
19.451206441799172
30
0
10
-61.220748162552255
20
19.691773369151825
30
0
10
-58.544947749030072
20
19.909911258909844
30
0
10
-55.966707123476517
20
20.104894168789041
30
0
10
-53.472093567207651
20
20.27709127012638
30
0
10
-51.041539359033223
20
20.427678568082822
30
0
10
-48.652309225139881
20
20.558426261672572
30
0
10
-46.281227180764148
20
20.671454833698707
30
0
10
-43.907294921128496
20
20.769004437022843
30
0
10
-41.514350246562714
20
20.853198907628013
30
0
10
-39.093724498392213
20
20.925811291386267
30
0
10
-36.646855889398893
20
20.988030892639252
30
0
10
-34.182442411680356
20
21.040466696983362
30
0
10
-31.713667100357771
20
21.083149117658706
30
0
10
-29.25536617545729
20
21.115530538903048
30
0
10
-26.821290391374148
20
21.136490404035563
30
0
10
-24.421166862745377
20
21.144328876625863
30
0
10
-22.058218903905299
20
21.136787416996064
30
0
10
-19.72557351969823
20
21.111003598474987
30
0
10
-17.406566113161695
20
21.063696503530416
30
0
10
-15.079807794930005
20
20.991633823731647
30
0
10
-12.723038945810536
20
20.892027369327323
30
0
10
-10.317469010043363
20
20.762956884476612
30
0
10
-7.8519238798317392
20
20.603783640551111
30
0
10
-5.3270403392775121
20
20.415564219378407
30
0
10
-2.7595267381586011
20
20.201474487583223
30
0
10
-0.18615453513963887
20
19.967200679008275
30
0
10
2.3443173677041726
20
19.719900212245516
30
0
10
4.7788965857108243
20
19.467200512576589
30
0
10
7.0683126669649425
20
19.216173920059873
30
0
10
9.1747028087634508
20
18.972344784936258
30
0
10
11.079841486228066
20
18.738631498190678
30
0
10
12.792132824129027
20
18.514436568177569
30
0
10
14.356748290161418
20
18.294360155329422
30
0
10
15.845277852688199
20
18.069370536389851
30
0
10
17.340294518632042
20
17.828590927224489
30
0
10
18.921271901685621
20
17.560910532655164
30
0
10
20.650777466125568
20
17.25659373387326
30
0
10
22.55835012923675
20
16.909086904304814
30
0
10
24.643566336905156
20
16.51510922955741
30
0
10
26.883336234719781
20
16.074361052934552
30
0
10
29.237747186685329
20
15.589366430840068
30
0
10
31.65649498363409
20
15.065255477987016
30
0
10
34.08511087772407
20
14.509582065476357
30
0
10
36.471160410578598
20
13.932104462422858
30
0
10
38.770765763064865
20
13.344641968818449
30
0
10
40.94960841673084
20
12.759800925093181
30
0
10
42.983513786530565
20
12.189589334255409
30
0
10
44.85911694180124
20
11.644111815331957
30
0
10
46.574654169999675
20
11.130139943040117
30
0
10
48.140330624993652
20
10.649946576526371
30
0
10
49.579774176665723
20
10.199513022129583
30
0
10
50.927869952258945
20
9.768799136377913
30
0
10
52.222828860635602
20
9.3453039069527453
30
0
10
53.49949307771449
20
8.9169046851644893
30
0
10
54.782365623744049
20
8.4748942738685624
30
0
10
56.078157352720488
20
8.0171838821857904
30
0
10
57.380859002636711
20
7.546259718029221
30
0
10
58.677986582768227
20
7.0666264314135354
30
0
10
59.955947323198217
20
6.5826542679973619
30
0
10
61.206885311563781
20
6.0957243830247423
30
0
10
62.42932005362281
20
5.6043630525568533
30
0
10
63.625527225175304
20
5.105997586335187
30
0
10
64.800008730140064
20
4.5980889164044898
30
0
10
65.9573262878246
20
4.0798055114866107
30
0
10
67.100938437788628
20
3.5523149532477549
30
0
10
68.232579381021324
20
3.0179652862344195
30
0
10
69.351673908550438
20
2.4797583060682165
30
0
10
70.454322269595451
20
1.9407342108100143
30
0
10
71.534381233071699
20
1.4032210699242502
30
0
10
72.586144126596565
20
0.86780125273826569
30
0
10
73.606276956973048
20
0.3325778407721196
30
0
10
74.596713279917921
20
-0.20820104775686007
30
0
10
75.561818968325895
20
-0.7611670454631726
30
0
10
76.504922187350118
20
-1.3305282494674333
30
0
10
77.424224511189934
20
-1.9138940476746007
30
0
10
78.311614203045878
20
-2.5015806023396534
30
0
10
79.158569636833349
20
-3.0842614252130258
30
0
10
79.960607185900543
20
-3.6588963905545189
30
0
10
80.722366685726229
20
-4.2354459119961181
30
0
10
81.449774587082828
20
-4.8268884282600375
30
0
10
82.142036999580185
20
-5.439170877794604
30
0
10
82.783975711411983
20
-6.0612267747790183
30
0
10
83.357573833796692
20
-6.6797710456253787
30
0
10
83.858095779996788
20
-7.2977949869450747
30
0
10
84.298517475320494
20
-7.9438257494701219
30
0
10
84.677406625212768
20
-8.6461285302709854
30
0
10
84.939443364739219
20
-9.4074654051485105
30
0
10
85.00292493751428
20
-10.197274858243917
30
0
10
84.828491882741844
20
-10.945214653890805
30
0
10
84.452797513478515
20
-11.552093237483652
30
0
10
83.939143470235237
20
-11.974531225040197
30
0
10
83.338945960361116
20
-12.298552604244978
30
0
10
82.683077357193469
20
-12.629869634786473
30
0
10
81.973464917089288
20
-12.95570628125823
30
0
10
81.197632509441405
20
-13.199604540768021
30
0
10
80.353754830732498
20
-13.337819139934506
30
0
10
79.457763207618115
20
-13.427058651196539
30
0
10
78.528661152453168
20
-13.533417337566661
30
0
10
77.576231905331483
20
-13.667769250457235
30
0
10
76.599885489595479
20
-13.791080542084156
30
0
10
75.594868489916863
20
-13.858922512325091
30
0
10
74.556571032400484
20
-13.862774509185293
30
0
10
73.483246087902486
20
-13.83019866082417
30
0
10
72.376403625135936
20
-13.796563187467118
30
0
10
71.242494872386501
20
-13.782146739458074
30
0
10
70.092384302034731
20
-13.778258449585973
30
0
10
68.9360343459728
20
-13.765544244505527
30
0
10
67.778709068488055
20
-13.724297990247639
30
0
10
66.61521025944603
20
-13.650619253519507
30
0
10
65.433487481131351
20
-13.553523923632644
30
0
10
64.221160865752054
20
-13.44671093032151
30
0
10
62.971216400741369
20
-13.341923478054412
30
0
10
61.687693386096825
20
-13.241986938080142
30
0
10
60.380763447674454
20
-13.144155418643821
30
0
10
59.062283807386763
20
-13.0429510277151
30
0
10
57.741130463377544
20
-12.933219957345445
30
0
10
56.418726500577066
20
-12.813044362453885
30
0
10
55.091710039565456
20
-12.682829125625851
30
0
10
53.754573280222722
20
-12.544414691995298
30
0
10
52.402187647591347
20
-12.4002110759207
30
0
10
51.032697482577149
20
-12.252245948557457
30
0
10
49.646856450631923
20
-12.102041588679366
30
0
10
48.24676152660377
20
-11.950611729945773
30
0
10
46.834888616038796
20
-11.798434669850904
30
0
10
45.412786478052453
20
-11.645392017089629
30
0
10
43.980795871797476
20
-11.490903746994032
30
0
10
42.538634370904006
20
-11.334250398758725
30
0
10
41.085738818304868
20
-11.174839570322268
30
0
10
39.621712919204782
20
-11.01250159679349
30
0
10
38.146713425505013
20
-10.847755599980932
30
0
10
36.661275441022575
20
-10.681520504398174
30
0
10
35.166141765282461
20
-10.514827644772737
30
0
10
33.662101408749876
20
-10.34855883629813
30
0
10
32.149799887118924
20
-10.183112007856629
30
0
10
30.629646634550035
20
-10.018312259809184
30
0
10
29.101879936411656
20
-9.8537098012018021
30
0
10
27.566594692258125
20
-9.6887994854607893
30
0
10
26.023786195765929
20
-9.523246858464006
30
0
10
24.473384477086036
20
-9.3571736813393702
30
0
10
22.915304109188888
20
-9.1911245611212316
30
0
10
21.349497759525725
20
-9.0258384456217602
30
0
10
19.776013233721812
20
-8.8620723425082044
30
0
10
18.19503913096019
20
-8.7004198903162351
30
0
10
16.606980691801024
20
-8.5410901006707682
30
0
10
15.012368568406817
20
-8.3839631349789752
30
0
10
13.411715321246264
20
-8.2287438498140624
30
0
10
11.805379197528323
20
-8.0750861259727245
30
0
10
10.193447179057147
20
-7.9227221973574515
30
0
10
8.5755527192252377
20
-7.7716083593597149
30
0
10
6.9510798292474085
20
-7.6219431489911873
30
0
10
5.3194814091861531
20
-7.4741385907599405
30
0
10
3.6805829535364092
20
-7.3288128175834233
30
0
10
2.0348401244147292
20
-7.186761007953435
30
0
10
0.38374770093031574
20
-7.0489676705383602
30
0
10
-1.2704876340852269
20
-6.9164402755470569
30
0
10
-2.9256195901651507
20
-6.7899680660119337
30
0
10
-4.5799652548418566
20
-6.6698829439740406
30
0
10
-6.2329498692820104
20
-6.5558668573851211
30
0
10
-7.8858902168783915
20
-6.4466229539688458
30
0
10
-9.5418304574268547
20
-6.3400639772391534
30
0
10
-11.204459454924391
20
-6.2339912424539188
30
0
10
-12.877244557056216
20
-6.1266685945137827
30
0
10
-14.56255162700751
20
-6.0173767524704243
30
0
10
-16.260591722080619
20
-5.907126054881874
30
0
10
-17.969032404736684
20
-5.7988072529031491
30
0
10
-19.684142559249459
20
-5.6960608544727922
30
0
10
-21.401623308527725
20
-5.6024088063961752
30
0
10
-23.117565501176927
20
-5.5202790988448891
30
0
10
-24.829349839315995
20
-5.4500818090762824
30
0
10
-26.536580604767714
20
-5.3892478669431192
30
0
10
-28.240484639045288
20
-5.3334303968210373
30
0
10
-29.943314853075758
20
-5.2776851551982285
30
0
10
-31.647733857022608
20
-5.2177174469825101
30
0
10
-33.356247164383376
20
-5.1509672779748712
30
0
10
-35.07051073111267
20
-5.0781030812434089
30
0
10
-36.791258857029149
20
-5.0025097606650535
30
0
10
-38.518510620417814
20
-4.9289001583879601
30
0
10
-40.251687154843474
20
-4.8621670086151187
30
0
10
-41.989766663125152
20
-4.8062215994843092
30
0
10
-43.731421538533368
20
-4.7626296239973396
30
0
10
-45.475168802883559
20
-4.7300214257112083
30
0
10
-47.219534027509781
20
-4.7052964819246865
30
0
10
-48.963211140554122
20
-4.6844535957014681
30
0
10
-50.705228160558995
20
-4.663587287891497
30
0
10
-52.445100386326388
20
-4.6397737021325316
30
0
10
-54.183015752496637
20
-4.6121094854466609
30
0
10
-55.919638432324945
20
-4.5812219206205986
30
0
10
-57.655877751179496
20
-4.5486383460623419
30
0
10
-59.392659356767908
20
-4.5161796399549221
30
0
10
-61.130718405776385
20
-4.4854022119338834
30
0
10
-62.870326807034559
20
-4.4568750008096538
30
0
10
-64.61126997654253
20
-4.4300920139387676
30
0
10
-66.353080760040257
20
-4.4040426679508817
30
0
10
-68.095206069236255
20
-4.3776089484235579
30
0
10
-69.83719679125862
20
-4.3500246815026538
30
0
10
-71.578897631898045
20
-4.3213284827028717
30
0
10
-73.320608191084929
20
-4.2927611207756549
30
0
10
-75.062763503664314
20
-4.2662369694297215
30
0
10
-76.805660731833257
20
-4.2438890601648342
30
0
10
-78.549139472205141
20
-4.2275623053025777
30
0
10
-80.292347730831352
20
-4.2183832539423189
30
0
10
-82.03330447501915
20
-4.2161591007886852
30
0
10
-83.769396534059041
20
-4.2195567278342745
30
0
10
-85.498311425279752
20
-4.2266617650221043
30
0
10
-87.218884499527036
20
-4.2354328193709918
30
0
10
-88.931868874977638
20
-4.2441675629088724
30
0
10
-90.641008886405515
20
-4.2520395178047208
30
0
10
-92.353116143260578
20
-4.2593618770829664
30
0
10
-94.075354173297256
20
-4.2670747785214855
30
0
10
-95.813080463527797
20
-4.2763811053905298
30
0
10
-97.567381228983379
20
-4.2883145353472738
30
0
10
-99.332937716490335
20
-4.3033572186158562
30
0
10
-101.09521586928383
20
-4.3209808053396532
30
0
10
-102.83562854103167
20
-4.3400305674630619
30
0
10
-104.53726068956408
20
-4.3591758334622179
30
0
10
-106.19076995683264
20
-4.3773610058118155
30
0
10
-107.79936067844559
20
-4.3942014697537335
30
0
10
-109.38627902208624
20
-4.4105397487644202
30
0
10
-110.99191553478649
20
-4.4283334753329378
30
0
10
-112.66349976612837
20
-4.4500643074739639
30
0
10
-114.44670637821396
20
-4.4782733982310399
30
0
10
-116.37704269584867
20
-4.5150751858724085
30
0
10
-118.46996695688887
20
-4.5616075320023839
30
0
10
-120.71596774649181
20
-4.617745566269627
30
0
10
-123.08840825440817
20
-4.6824995537065117
30
0
10
-125.54888239689484
20
-4.7542792520595025
30
0
10
-128.05356395172024
20
-4.8312115565581379
30
0
10
-130.55912018073639
20
-4.9114347974077832
30
0
10
-133.02883832898428
20
-4.9934043968637445
30
0
10
-135.4386002385408
20
-5.076190527287042
30
0
10
-137.78308937429239
20
-5.1597878233397481
30
0
10
-140.07099881049083
20
-5.2448587169650596
30
0
10
-142.32005490688806
20
-5.3324673801360456
30
0
10
-144.55208125331521
20
-5.4238155318092787
30
0
10
-146.78810886732924
20
-5.5199810904991029
30
0
10
-149.04332073589967
20
-5.6216472112468008
30
0
10
-151.3224108754163
20
-5.7288552032614559
30
0
10
-153.61385178644755
20
-5.8406946263132129
30
0
10
-155.89461217401941
20
-5.9555947100195024
30
0
10
-158.13641450981464
20
-6.071704431551268
30
0
10
-160.31142862007511
20
-6.1872400174208577
30
0
10
-162.39824961970078
20
-6.3008490997603719
30
0
10
-164.38764513447433
20
-6.4119609227029217
30
0
10
-166.28866105658562
20
-6.5211587858319477
30
0
10
-168.13383883101122
20
-6.6304969523818098
30
0
10
-169.96869569531293
20
-6.7428325533973332
30
0
10
-171.84202201699438
20
-6.8612085628079811
30
0
10
-173.79576468892253
20
-6.9882110613153081
30
0
10
-175.855327698509
20
-7.1253521338767287
30
0
10
-178.01911913664881
20
-7.2724067289918759
30
0
10
-180.25006531589889
20
-7.4268696099518685
30
0
10
-182.48836168043943
20
-7.5847160455128293
30
0
10
-184.66279468835461
20
-7.7410717661385418
30
0
10
-186.70238448193993
20
-7.8909097697936303
30
0
10
-188.54839393354348
20
-8.0297528892236194
30
0
10
-190.1650062663617
20
-8.1543337937790028
30
0
10
-191.55352930703765
20
-8.2633732429246827
30
0
10
-192.75117839710032
20
-8.3578650096795482
30
0
10
-193.82108602326045
20
-8.4411756934374189
30
0
10
-194.84420056398875
20
-8.5190203963672886
30
0
10
-195.91228947276136
20
-8.5999236402902302
30
0
10
-197.1107229138407
20
-8.6932715166403334
30
0
10
-198.49415892887038
20
-8.8059232706466979
30
0
10
-200.06640334522893
20
-8.9395065544369778
30
0
10
-201.75361825054381
20
-9.08683350147124
30
0
10
-203.43595965334598
20
-9.2354227363900723
30
0
10
-204.98745212037335
20
-9.3720036659707642
30
0
10
-206.31244232846171
20
-9.4866155550659386
30
0
10
-207.38468973026102
20
-9.5770159913005486
30
0
10
-208.28201250802945
20
-9.6525723515013659
30
0
10
-209.11886869824914
20
-9.7263480808730716
30
0
10
-209.98115983147227
20
-9.8074397303853704
30
0
10
-210.86251954789759
20
-9.8935009028500502
30
0
10
-211.71197030352039
20
-9.9767004997354256
30
0
10
-212.48779139138125
20
-10.050439736836248
30
0
10
-213.18811164053685
20
-10.113233710056093
30
0
10
-213.69604592061899
20
-10.15501012340038
30
0
10
-214.04955187769406
20
-10.181693575975695
30
0
10
-214.27297422421717
20
-10.197410614143177
30
0
10
-214.38162623928497
20
-10.204751483726206
30
0
0
ARC
5
101
100
AcDbEntity
8
0
100
AcDbCircle
10
-214.26943470124229
20
-9.8662767334833408
30
0
40
0.35658392807354522
100
AcDbArc
50
112.14489252847878
51
251.66159973370731
0
ENDSEC
0
SECTION
2
OBJECTS
0
DICTIONARY
5
C
100
AcDbDictionary
3
ACAD_GROUP
350
D
3
ACAD_MLINESTYLE
350
17
0
DICTIONARY
5
D
100
AcDbDictionary
0
DICTIONARY
5
1A
330
C
100
AcDbDictionary
0
DICTIONARY
5
17
100
AcDbDictionary
0
ENDSEC
0
EOF
